<?xml version="1.0"?><svg width="640" height="480" xmlns="http://www.w3.org/2000/svg">
 <g>
  <title>Layer 1</title>
  <path stroke="#191919" fill="#000000" d="m139.5,222.371323c0,0 14.60022,-41.937393 16.088623,-45.759872c1.485474,-3.822479 5.764954,-1.013077 5.764954,-1.013077l35.428894,18.215057l2.046204,-0.675095c0,0 0.185669,-5.8461 1.116272,-6.071701c0.929138,-0.224747 1.11554,-2.588028 0.743469,-4.6091c-0.373596,-2.02446 0.745667,-7.870544 1.301208,-7.984619c0.5578,-0.112366 -0.09137,-3.25975 -0.46344,-5.285049c-0.372864,-2.023621 2.137512,-29.232132 2.137512,-29.232132c1.953369,-10.119751 19.157532,-11.019608 18.879028,-11.243515c-0.280762,-0.225601 -6.137817,-23.050606 -7.067627,-23.724022c-0.931396,-0.675949 -3.068909,-16.416199 -3.068909,-16.416199c-1.954773,-3.823318 -0.836304,-13.605095 -0.836304,-13.605095c11.158508,-22.600254 26.782959,-18.101833 26.782959,-18.101833c0,0 2.325378,2.135979 2.882446,2.24836c0.559265,0.112381 4.742188,1.348511 5.95282,1.348511c1.207642,0 9.205933,13.830708 9.113098,17.653187c-0.093567,3.822472 0.464172,19.901543 0.464172,19.901543l1.2099,0c2.231812,3.371277 -3.163208,16.303818 -3.163208,16.303818l0.559998,4.834702c0,0 -0.095093,7.870552 7.996765,13.492729c8.089661,5.620499 37.383728,38.90239 37.383728,38.90239l-0.559265,25.972382c0,0 -1.860474,22.713486 -0.650574,27.659729c1.209106,4.948761 -7.813354,36.655716 -7.813354,37.216751c0,0.564392 1.674072,6.746765 1.395508,7.984589c-0.277039,1.237 -4.741455,20.464264 -4.741455,20.801422c0,0.336273 -5.300781,34.179199 -5.300781,34.179199l-2.511047,3.823303c0,0 -0.373596,7.98465 0.093567,7.421051c0.464966,-0.56189 7.254028,6.182343 7.254028,6.182343l24.176819,0.899017c4.835876,4.16214 1.208435,56.781158 1.208435,57.793396c0,1.012207 -7.068359,7.870544 -8.833862,8.996002c-1.767639,1.124603 -8.0896,1.236145 -8.554565,0.783234c-0.467102,-0.447815 -2.04834,3.262299 -2.04834,3.262299l-4.462219,0l-0.092834,-1.461761l-19.250366,3.376373c-7.81189,19.900696 -7.067688,25.971527 -11.622742,35.078217c-4.557312,9.109222 -13.299744,11.469971 -16.552856,13.270477c-3.256042,1.797211 -7.441223,-3.488708 -7.441223,-3.488708l-0.37207,-5.170135c-1.302734,-3.821625 11.53064,-28.900085 11.53064,-28.900085l-0.091431,-10.901337c0,0 -7.53479,0.222229 -9.300232,0.33374c-1.766907,0.114899 -8.554565,-1.460876 -8.554565,-1.908691c0,-0.448669 -15.344421,8.994293 -15.344421,8.994293c-0.6521,1.68396 -11.810608,1.124603 -11.810608,1.124603c-5.764954,1.238678 -6.603455,-6.745941 -6.603455,-6.745941c-0.743469,-6.520355 21.482178,-17.092163 21.482178,-17.092163l3.161743,-6.743378l-0.09137,-2.588043c-5.39502,0.226471 -12.834778,-86.237183 -12.834778,-86.237183c0,0 -3.163208,-10.907227 -4.556519,-12.480499c-1.394165,-1.574951 4.835754,-35.868225 4.835754,-35.868225l-1.58197,-0.338837l-15.994324,-8.43158c0,0 1.674805,1.574112 -5.486389,1.460892c-7.160522,-0.11322 -16.367859,-6.74678 -16.367859,-6.74678l-0.837097,-6.408829l-2.973816,-1.011383c-6.697754,0.900696 -5.396545,-3.25975 -5.396545,-3.25975l-17.758301,-10.008987zm145.62738,122.445114l0.062134,-0.223083c0,-0.528076 -4.523682,-4.949615 -4.70929,-4.198456c-0.187927,0.748596 -3.473877,1.497223 -3.473877,1.497223l-2.665405,3.597717l10.786438,-0.673401z"/>
  <path stroke="#000000" fill="#FFFFFF" d="m255.35083,119.947998c0,0 -3.914902,23.919937 -27.5065,24.467422c0,0 -8.629028,-9.827698 -6.350143,-12.397797c1.166901,-1.316788 -2.429413,-0.987808 -2.429413,-0.987808l0.948151,9.874695l-4.972015,13.935577c0,0 -6.347626,27.650986 -6.347626,29.734604c0,2.085281 -2.963409,37.637833 -2.222336,38.734467c0.741882,1.09581 17.985809,-35.331589 18.302719,-38.075653c0.316864,-2.741592 22.324875,-43.449188 22.324875,-43.449188c0,0 8.676483,-13.716232 8.676483,-14.485535c-0.000854,-0.767654 -0.424194,-7.350784 -0.424194,-7.350784z"/>
  <path fill="#000000" d="m230.986465,145.003113l-1.617126,-1.32811l-2.808121,3.187836c0,0 -0.680313,7.968674 -0.851715,8.944244c-0.169052,0.973709 -11.232468,41.528366 -8.935013,48.16893l15.062515,-32.497711l-1.275513,-16.735703c0,0 1.275513,-6.02063 0.594025,-6.374435c-0.680298,-0.353775 0.085709,-3.453339 0.085709,-3.453339"/>
 </g>
</svg>